<svg id="avocado" xmlns="http://www.w3.org/2000/svg" viewBox="0 0 66.76 102.16"><defs><style>.cls-1{fill:#558b2f;}.cls-2{fill:#dce775;}.cls-3{fill:#fff59d;}.cls-4{fill:#bf360c;}.cls-5{fill:#785447;}</style></defs><title>avocado</title><path id="green" class="cls-1" d="M77.55,156.55l4.92,3s7.6-1.19,9.09,5.66,1.79,17.88,1.79,17.88L105,206v17.29s-2.68,19.67-29.8,25.33-37-25.93-37-25.93V204.83s6.85-29.8,17.58-37.55S70.7,156.51,77.55,156.55Z" transform="translate(-38.21 -147.16)"/><path id="lightgreen" class="cls-2" d="M73.38,162.21S49.24,182.78,47.45,192s-5.37,10.73-3.88,24.44S55.2,239.41,55.2,239.41s4.13,5.36,16.52,5.06,26.69-17.58,26.69-17.58,2.09-2.69,1.79-12.52-8.94-26.82-8.94-26.82L85.9,177.41l1.19-11S80.53,161.32,73.38,162.21Z" transform="translate(-38.21 -147.16)"/><path id="lightyellow" class="cls-3" d="M71.59,181s-5.66-2.68-13.11,10.13a78.69,78.69,0,0,0-9.24,25.63s.3,18.48,12.52,21.16a55.5,55.5,0,0,0,22.94,0s8.65-7.74,8.65-16.39-4.47-23.06-4.47-23.06S81.72,180.39,71.59,181Z" transform="translate(-38.21 -147.16)"/><path id="seed" class="cls-4" d="M71.73,194.7s-14.15,5.66-14.45,18.18S61.46,231.06,68,232.55s14.91-4.47,14.91-4.47,2.38,1.49,2.38-10.43a29.05,29.05,0,0,0-7.15-19.19S75.18,192.9,71.73,194.7Z" transform="translate(-38.21 -147.16)"/><path id="stem" class="cls-5" d="M78.86,155.69s3.46-9.16,9-8.49-3.58,11.17-3.58,11.17-2.72.64-4-.11A4.07,4.07,0,0,1,78.86,155.69Z" transform="translate(-38.21 -147.16)"/></svg>