<svg id="banana" xmlns="http://www.w3.org/2000/svg" viewBox="0 0 95.83 84.54"><defs><style>.cls-1{fill:#3f4a54;}.cls-2{fill:#ffea80;}.cls-3{fill:#e0b70a;}.cls-4{fill:#ffed9f;}</style></defs><title>banana</title><path id="black-front" class="cls-1" d="M729.62,196.82l4.22-4.86s-.42-17.74,2.11-17.74,3.81,9.5,3.81,16.48S741,208.44,741,208.44s3.17,19.43-14.15,34.85-38.44,15.42-38.44,15.42-24.09,1.27-30.84-9.29c0,0-5.07-7.18,15-9.51,0,0,34.43-7.6,51.54-26l11.41-12V198.3l-4.86,2.54Z" transform="translate(-645.42 -174.22)"/><path id="front.banana" class="cls-2" d="M666,247.31s3.6,9.29,25.35,6.33S725,238,725,238s10.35-11.64,10.56-16.81,0-11.49,0-11.49S719.9,227,709.13,232s-33,11.53-33,11.53S665.61,244.35,666,247.31Z" transform="translate(-645.42 -174.22)"/><path id="darkyellow" class="cls-3" d="M684.62,230.83s23.45-11,30.84-16.9,12.47-7.81,12.47-7.81l4.53-1-10.9,11.36-8.39,6.56-21.12,10.72h-7.43Z" transform="translate(-645.42 -174.22)"/><path id="backyellow" class="cls-4" d="M652.09,208.65s-1.48-2.75,18.8,2.32,46.68,1.34,46.68,1.34-10.31,7.12-16.75,10.44-16.2,7.45-16.2,7.45-16.47-5.74-20.91-9S653.15,213.93,652.09,208.65Z" transform="translate(-645.42 -174.22)"/><path id="backblack" class="cls-1" d="M724.12,205.13s-13.3,4.79-26.61,4.58-38.66-8.45-47.11-9.09-3.59,11.83-3.59,11.83l16.27,14.16,13.73,7.16h7.81V230.2s-17.23-5.56-23.32-10.75-9.21-7.63-9.21-10.8,15.42,1.06,15.42,1.06l19.22,3.61,26.07-.48s8.07-.05,9.7-3.88Z" transform="translate(-645.42 -174.22)"/></svg>