<svg id="cherry" xmlns="http://www.w3.org/2000/svg" viewBox="0 0 95.77 102.55"><defs><style>.cls-1{fill:#434a54;}.cls-2{fill:#d8566c;}.cls-3{fill:#fcfcfc;}.cls-4{fill:#fff;}.cls-5{fill:#444b54;}.cls-6{fill:#70e9d4;}</style></defs><title>cherry</title><path id="rightblack" class="cls-1" d="M194.3,146.63s-18.51,14-24.5,21.41-12.51,24.84-12.51,24.84l-1.54,13.54s-16.62,1.2-18.5,20.39,19,22.27,19,22.27,11.48,1.37,16.62-6.17,5.14-12,5.48-16.44-1.71-10.28-6.68-15.08-9.59-4.29-9.59-4.29V195.28l11.13-22.44,17.31-16.28,7.19-5.65v-4.28Z" transform="translate(-137.13 -146.63)"/><path id="leftcherry" class="cls-2" d="M157.46,211.56s-14.73,3.08-14.9,14.22,7.54,17.65,13.7,18.85,13.88-6.17,13.88-6.17a16.77,16.77,0,0,0,4.11-10.3c.35-6.49-5.14-11.46-5.14-11.46A17,17,0,0,0,157.46,211.56Z" transform="translate(-137.13 -146.63)"/><path id="whitedotL" class="cls-3" d="M145.26,225.74s-2.23.6-1.93,2.42,1.71,2.55,2.78,2.07a2.26,2.26,0,0,0,1.2-2.87A2,2,0,0,0,145.26,225.74Z" transform="translate(-137.13 -146.63)"/><path id="longwhiteL" class="cls-4" d="M146.2,219.57s5.22-5.44,7.11-5.31,2.22,1,2.22,1a5.66,5.66,0,0,1-1,2.87c-.9,1-4.76,4.5-4.76,4.5s-2.48.6-3.17,0S146.2,219.57,146.2,219.57Z" transform="translate(-137.13 -146.63)"/><path id="rightbalck" class="cls-5" d="M191.39,164.1s-2.32-.34-2.57,5.83-.6,22.44-.6,22.44l1,6.32,5.32,12.53-6,11.05.26,10.36a18.34,18.34,0,0,0,9.93,13.45,22.54,22.54,0,0,0,17.91,1.29s3.94-1,8.31-6.6,4.45-15.5,4.45-15.5.34-4.89-5.91-11.4a22.21,22.21,0,0,0-14.69-6.51s-6,.6-8.61,1.63l-7.45-12.68-.26-19.1S194,166.24,191.39,164.1Z" transform="translate(-137.13 -146.63)"/><path id="rightcherry" class="cls-2" d="M208.82,211.5s-9.55-1.88-14.58,9.88,5.83,20.39,5.83,20.39a13.21,13.21,0,0,0,8.22,2.86,15.78,15.78,0,0,0,12.51-7.2c3.2-4.8,3.82-7.08,3.82-9.65s-.68-8.57-4.45-11.48S212.57,211.4,208.82,211.5Z" transform="translate(-137.13 -146.63)"/><path id="longwhite" class="cls-4" d="M197.44,222.12l-.74-3.19,7.42-5.94a2.34,2.34,0,0,1,2.06,2.74c-.4,2.4-6.57,6.39-6.57,6.39S198.07,222.92,197.44,222.12Z" transform="translate(-137.13 -146.63)"/><path id="whitedot" class="cls-4" d="M194.64,227.38s1.83-2,3.08-.91.58,2.91,0,3.48-3.08,0-3.08,0Z" transform="translate(-137.13 -146.63)"/><path id="leafblack" class="cls-5" d="M199.9,157.48v-3.43s6.16-1.49,10.73.46,15.31,11.76,15.31,11.76a40.1,40.1,0,0,1,6.74,17.13c1.25,9.83-3.26,18.85-3.26,18.85s-5.31-.8-10-1.71S199.9,183.4,199.9,183.4l.57-4.56,4.34,1.71,11.59,13.13s7.82,5.68,10.79,5c0,0,1.26-13.69.12-18.6s-9.48-17-17.14-19.42S199.9,157.48,199.9,157.48Z" transform="translate(-137.13 -146.63)"/><path id="leaf" class="cls-6" d="M199.9,158.36s11.65,1,17.57,7.54a56.46,56.46,0,0,1,8.57,12l1.11,18.69s-5.94,1.61-11.56-4.29-15.69-15.8-15.69-15.8Z" transform="translate(-137.13 -146.63)"/></svg>