<svg id="cocoa" xmlns="http://www.w3.org/2000/svg" viewBox="0 0 87.92 94.18"><defs><style>.cls-1{fill:#6d4c41;}.cls-2{fill:#689f38;}.cls-3{fill:#ffb004;}.cls-4{fill:#fb8c00;}.cls-5{fill:#ffca2a;}</style></defs><title>cocoa</title><polygon id="tree" class="cls-1" points="20.26 0 52.63 0 52.63 7.93 57.22 94.18 25.48 94.18 27.36 59.51 24.23 14.83 20.26 0"/><path id="leftleaf" class="cls-2" d="M421,168.63S405.73,181,401.55,207.89s-1.88,46.78-1.88,46.78L416.79,235s-13.57-12.95-11.06-28.82,19.21-27.14,19.21-27.14Z" transform="translate(-399.04 -164.25)"/><path id="rightleaf" class="cls-2" d="M464.84,208.31s15.87,21.72,18,43.23l-18-10v-6.89l1.88-3.76-.21-12.32-4.18-8.77Z" transform="translate(-399.04 -164.25)"/><path id="middle" class="cls-3" d="M434.75,181.37S426.19,172.18,407,195c0,0-3.11,11.44-3.12,17.62S414.1,234,414.1,234l16.06-14.17,5.64-8.15a52.43,52.43,0,0,0,2-15.24A55.52,55.52,0,0,0,434.75,181.37Z" transform="translate(-399.04 -164.25)"/><path id="dark" class="cls-4" d="M437.81,181.16s-2.21-8.64,14-6.93,21.6,8,21.6,8L484,197.66,487,203.3l-1.46,5L465,206.76s-20.37-11.87-22.29-15.6S437.81,181.16,437.81,181.16Z" transform="translate(-399.04 -164.25)"/><path id="light" class="cls-5" d="M442.74,201.42s-4.65,4.18-4,16.7,3.34,17.75,11.07,22.35S460,248.19,460,248.19s5.85-4.38,5.85-8.35,2.29-18.93-.84-26.94-9.86-11.48-16.08-11.48Z" transform="translate(-399.04 -164.25)"/></svg>