<svg id="lemon" xmlns="http://www.w3.org/2000/svg" viewBox="0 0 80.87 81.63"><defs><style>.cls-1{fill:#444b54;}.cls-2{fill:#fcef4c;}.cls-3{fill:#fff;}</style></defs><title>lemon</title><path id="shadow" class="cls-1" d="M328.45,246s17.8-1.62,17.8,1.88-38,3.1-38,3.1l-18.14-4s-4.53,1.27-10.58-1.38-2.18-11.22-2.18-11.22-4-5.54-4.71-10.25-1-18.64,5.38-31.07,19.15-18.64,19.15-18.64,14.78-10.08,36.61-1.85a3,3,0,0,0,3.53,2.18s5.21-7.56,11.42.17a7.92,7.92,0,0,1,1.85,6c-.34,3.86-2,5.54-2,5.54s4.37,4,4.54,9.41,0,18,0,18-4.7,14.27-8.57,20.15S328.45,246,328.45,246Z" transform="translate(-272.34 -169.41)"/><path id="yellow" class="cls-2" d="M337.35,180s3.86-4.2,6.72-1.51,0,7.22,0,7.22-1.68.17-.84,2.69,4.53,2.18,4.53,6.72.68,15.07.68,15.07-1.85,15.83-10.42,23.22-21.33,11.38-21.33,11.38h-20a3.07,3.07,0,0,1-2.85-1.8c-.67-1.85,0-6.22,0-6.22s-1.85-5-4.71-.67l-1,5.37a4.35,4.35,0,0,1-3.53,2.35c-2.69.34-3.53-5.37-3.53-5.37s2.35-1.51,2.19-5.37-5.21-8.4-5.21-8.4V205.06a52.29,52.29,0,0,1,14.61-21.5c10.75-9.24,26-9.24,26-9.24s13.77.33,16.62,5.54Z" transform="translate(-272.34 -169.41)"/><g id="whitedot"><path class="cls-3" d="M290.4,187.42a3.34,3.34,0,0,0,0,3.19c.93,1.68,3.87,0,3.87,0a13.48,13.48,0,0,0,0-3.19C294,187,292.34,186.33,290.4,187.42Z" transform="translate(-272.34 -169.41)"/></g><g id="longwhite"><path class="cls-3" d="M297.54,185.4h2.94A11.87,11.87,0,0,1,307,182c4.45-.92,8.14-2.6,16.12-1.93s5-2.85,5-2.85a32.19,32.19,0,0,0-17.21-.93c-9.07,2.19-13,6.64-13,6.64Z" transform="translate(-272.34 -169.41)"/></g></svg>