<svg id="melon" xmlns="http://www.w3.org/2000/svg" viewBox="0 0 99.99 100.09"><defs><style>.cls-1{fill:#5fb55b;}.cls-2{fill:#ffecb3;}.cls-3{fill:#ffb300;}</style></defs><title>melon</title><path id="green" class="cls-1" d="M477.58,306.54l3.73-3.74A37.09,37.09,0,0,1,493,317.43c4.55,9.91,6,22.42,6,22.42v20.81s-7.15,16.41-13.49,23.4-30.07,18-30.07,18-19.82,1.79-26.49,0-29.41-15.44-29.9-16.74,3.74-3.41,3.74-3.41l27.46,15.76,23.24.32s15.6-7.15,20.32-11.7S488,372,489.44,368.62,493,355.76,493,355.76l.81-17.53-2.28-9.43S485.86,313.85,477.58,306.54Z" transform="translate(-399.04 -302.8)"/><path id="edible" class="cls-2" d="M464.79,320.35l13.81-14.79s15.41,17,15.61,29.05a211.88,211.88,0,0,1-1.8,26.81s-6.86,14.18-14,20.46S457.45,396,452.1,397s-20.23,0-26.74-3.71L403.84,381l15.28-14.62s5.69,7.47,18.52,7,23.41-11.7,23.41-11.7,7.47-4.87,9.42-16.09S469,326.37,469,326.37Z" transform="translate(-399.04 -302.8)"/><path id="seed" class="cls-3" d="M419.77,366.35l45.67-46s15.61,19.32-1.06,38.92-37.86,11.94-37.86,11.94Z" transform="translate(-399.04 -302.8)"/></svg>