<svg id="peach" xmlns="http://www.w3.org/2000/svg" viewBox="0 0 89.4 98.2"><defs><style>.cls-1{fill:#ff9e80;}.cls-2{fill:#ff5252;}.cls-3{fill:#4caf50;}</style></defs><title>peach</title><path id="lightP" class="cls-1" d="M113.13,322.78s6.62-14.67,26-12.77,25.55,20.34,25.55,20.34l3.55,15.6s.24,13.74-6.15,23.2-26.5,20.59-26.5,20.59l-9,7.09s-9.46-1.65-18.69-25.78S108.16,326.57,113.13,322.78Z" transform="translate(-78.86 -298.63)"/><path id="darkP" class="cls-2" d="M95.62,314.5l20.82,6.61S104.34,332,105.79,346s8.3,33.84,8.3,33.84l7,11S111,394.47,93,379.33,79.3,338.4,79.3,338.4,82.61,321.36,95.62,314.5Z" transform="translate(-78.86 -298.63)"/><path id="leaf" class="cls-3" d="M118.57,320.63s-16.09,3.31-27.68-8.75-1.42-13.25-1.42-13.25h21.29s10.6,5.2,13.46,13.48S118.57,320.63,118.57,320.63Z" transform="translate(-78.86 -298.63)"/></svg>