<svg id="pineapple" xmlns="http://www.w3.org/2000/svg" viewBox="0 0 96.67 96.35"><defs><style>.cls-1{fill:#f9a825;}.cls-2{fill:#558b2f;}.cls-3{fill:#85bd47;}</style></defs><title>pineapple</title><path id="body" class="cls-1" d="M234.58,369.36l.94-15.4s23-28.45,32.23-29.87,20.59,1.57,20.59,1.57l13,11.64,4.4,9.24v16.38l-12.41,18.39L275.29,395H258.47l-16-9.43Z" transform="translate(-234.58 -298.63)"/><path id="darkleaf" class="cls-2" d="M287.87,324.72l.78-15.56,6.76-10.53s3.3,1.57,3.3,7.86,1.89,6.13,1.89,6.13l-1.42,15.56,20.12,1.26s10.38,4.24,10.06,6.76-17.45,5.65-17.45,5.65l-8.71-.74Z" transform="translate(-234.58 -298.63)"/><path id="lightleaf" class="cls-3" d="M299.27,329.47V307.12l5.1,1.57s.47-7.7,2.83-7.86,4.24,11.95,4.24,11.95,12.89-7.71,14.15-6.92-.63,7.39-.63,7.39l-6.6,8,12.89,2.2-10.13,9Z" transform="translate(-234.58 -298.63)"/></svg>