<svg id="tomato" xmlns="http://www.w3.org/2000/svg" viewBox="0 0 82.55 85.09"><defs><style>.cls-1{fill:#f15b6c;stroke:#070200;}.cls-1,.cls-2{stroke-miterlimit:10;}.cls-2{fill:#60be92;stroke:#000;}</style></defs><title>tomato</title><path id="tomato-2" data-name="tomato" class="cls-1" d="M609.71,323.76s-22.49,10.17-23.45,24.72,1.85,23.23,1.85,23.23,7.94,12.61,13.81,16.92S623,395.38,623,395.38h12.4s16.33-5.79,21.3-11.28a50.3,50.3,0,0,0,7.94-12.62,29.2,29.2,0,0,0,3-11.91c.22-6.86-2.82-16.51-2.82-16.51s-4.38-10.24-9.87-13.73-21-7.72-21-7.72S620,320.57,609.71,323.76Z" transform="translate(-585.56 -310.79)"/><path id="stem" class="cls-2" d="M624,323.39s4.38-12.32,6.31-12.1a5.73,5.73,0,0,1,3.19,1.56s-5,4-3.64,10c0,0,5-4,9.06-3.63a48,48,0,0,1,9.35,2.21,7.45,7.45,0,0,1-3.71,5.5c-3.49,2.08-7.57.67-7.57.67L649.79,335l-6.31,3.57-5.49-.89-6.46-6.24,1.93,8-2.3,8.83-8.61-8.83v-7l-5.64,5.86-11.8-1.63,6.9-8.68s5.57-.3,6.09-1.19-7-3-7-3-4.53-3.57-3.64-8.91C607.48,314.93,623.07,318.27,624,323.39Z" transform="translate(-585.56 -310.79)"/></svg>