<svg id="watermelon" xmlns="http://www.w3.org/2000/svg" viewBox="0 0 88.61 88.53"><defs><style>.cls-1{fill:#558b2e;}.cls-2{fill:#e6ee9c;}.cls-3{fill:#ff1744;}.cls-4{fill:#5d4037;}</style></defs><title>watermelon</title><path id="green" class="cls-1" d="M595.1,170.17l.76-2.5,3.7-.54,9.12,12.05s4.78,10.65,5,13.47,0,22.16,0,22.16-7,16.61-9.24,19.44S594.89,248,579,253a61.56,61.56,0,0,1-30.41,1.3s-10-3.37-16.29-7.49-7.17-7.28-7.17-7.28l.54-2.39,4.13.33L542.1,247a48.66,48.66,0,0,0,16.73,4.77c9.45.87,23-4.88,23-4.88s14.45-10,16.08-12.17,9.88-15.42,10.64-16.4.87-18,.87-18-.22-7.16-2.39-11.94S595.1,170.17,595.1,170.17Z" transform="translate(-525.16 -167.13)"/><path id="lightgreen" class="cls-2" d="M591.08,174.84l1.53-2.61a3,3,0,0,1,4,0c2.1,1.74,11.5,16.51,12.16,21.89s.39,18.94.39,18.94.21,7.53-7.87,16.58-13.16,12.78-13.16,12.78S584,247.94,573,249.87a77.38,77.38,0,0,1-18.62,1.22s-8.77-1.44-14.85-6.12-9.58-8-9.58-8l.54-2.6s2-2,2.39-1.52,9.23,7.06,9.23,7.06l8.58,4.23h23.57s17.6-11.4,18.9-13.47S600.64,219,600.64,219s1.85-4.12,1.74-14-4.45-19.76-4.45-19.76Z" transform="translate(-525.16 -167.13)"/><path id="redpart" class="cls-3" d="M533.09,231.86l58-56.94s12.51,16.08,11.22,29.45-6,24.14-10.43,27.49-13.23,11.4-20.5,12.27-21.7.17-28.72-3.93S533.09,231.86,533.09,231.86Z" transform="translate(-525.16 -167.13)"/><path id="seed-right" class="cls-4" d="M578.92,198.3s5.32-5.54,8.15-4.45,3.36,2.49,3.25,3.69-5.69,2.06-5.69,2.06Z" transform="translate(-525.16 -167.13)"/><path id="seed-4" class="cls-4" d="M580.33,209.69s2.61-4.22,6.3-2.92,3.71,3.69,3.71,3.69-2.51,2.94-3.71,3.15-3.91-2.27-3.91-2.27Z" transform="translate(-525.16 -167.13)"/><path id="seed-middle" class="cls-4" d="M576.64,218.07s5.76-1,6.3,2.28-.54,5.54-3.15,5.21-3.15-4.24-3.15-4.24Z" transform="translate(-525.16 -167.13)"/><path id="seed-2" class="cls-4" d="M564.8,226.54s1.38-6,3-5.43,4.31,4.12,4.31,6.73-3.64,4.67-3.64,4.67A7.35,7.35,0,0,1,564.8,226.54Z" transform="translate(-525.16 -167.13)"/><path id="seed-left" class="cls-4" d="M550.9,226.1s4.67-6,5.65-5,1.52,6.88,1.52,6.88-.54,4.89-3.15,4.56S550.57,230,550.9,226.1Z" transform="translate(-525.16 -167.13)"/></svg>